<?xml version="1.0" encoding="UTF-8"?>
<svg width="140px" height="80px" viewBox="0 0 140 80" version="1.1" xmlns="http://www.w3.org/2000/svg" xmlns:xlink="http://www.w3.org/1999/xlink">
    <!-- Generator: Sketch 52.2 (67145) - http://www.bohemiancoding.com/sketch -->
    <title>assistec.logo.placeholder</title>
    <desc>Created with Sketch.</desc>
    <defs>
        <path d="M85.8673947,0.918958333 L85.5622895,1.296625 L84.3803421,2.92325 L70.9619737,21.286375 C70.9619737,21.286375 59.6435526,18.2192083 57.2340263,17.6779167 C56.2417632,17.4579167 55.0633947,17.3639583 54.578,18.0982083 C53.5530789,19.6496667 54.6039474,22.202125 56.2882895,23.3525417 C58.1032632,24.5927917 67.9391053,30.7500417 69.6762368,31.7849583 C71.9895789,33.1645417 72.7165526,32.5655 73.0301579,32.3322083 C73.7038947,31.835375 78.3824737,23.1018333 78.3824737,23.1018333 C78.3824737,23.1018333 86.9209474,5.797 86.8462368,5.96566667 C87.4926842,4.53841667 87.9328947,2.596 87.6913158,1.76229167 C87.3978421,0.742041667 87.0077368,0.457416667 86.6663947,0.457416667 C86.2284211,0.457416667 85.8673947,0.918958333 85.8673947,0.918958333 Z" id="path-1"></path>
    </defs>
    <g id=".symbols" stroke="none" stroke-width="1" fill="none" fill-rule="evenodd">
        <g id=".head" transform="translate(0.000000, -20.000000)">
            <g transform="translate(0.000000, 20.000000)" id="assistec.logo.placeholder">
                <g>
                    <g>
                        <path d="M18.5907806,51.5019193 C18.5907806,47.561842 15.6236839,44.6288696 11.6522,44.6288696 C7.68116774,44.6288696 4.71316774,47.561842 4.71316774,51.5019193 C4.71316774,55.4419967 7.68116774,58.3754221 11.6522,58.3754221 C15.6236839,58.3754221 18.5907806,55.4419967 18.5907806,51.5019193 Z M23.2171032,40.7762287 L23.2171032,61.6590464 C23.2171032,68.7074221 17.7187161,71.9910464 12.0017484,71.9910464 C7.20110323,71.9910464 3.49155484,70.1961072 1.65845806,66.6936652 L5.71710323,64.3292564 C6.67768387,66.2120851 8.29174839,67.7007702 12.0884581,67.7007702 C16.1471032,67.7007702 18.5907806,65.4677425 18.5907806,61.6590464 L18.5907806,58.9883834 C16.9324581,61.3527923 14.3578129,62.7975326 10.9978129,62.7975326 C4.84413548,62.7975326 -0.00031612903,57.7629138 -0.00031612903,51.5019193 C-0.00031612903,45.2418309 4.84413548,40.2076652 10.9978129,40.2076652 C14.3578129,40.2076652 16.9324581,41.6519525 18.5907806,44.0168144 L18.5907806,40.7762287 L23.2171032,40.7762287 Z" id="Fill-1" fill="#000000"></path>
                        <path d="M40.1495613,40.3825834 L40.1495613,45.5046387 C37.0505935,45.285821 33.4291097,46.7305613 33.4291097,51.6333459 L33.4291097,62.6661967 L28.7156258,62.6661967 L28.7156258,40.776274 L33.4291097,40.776274 L33.4291097,44.453589 C34.7378839,41.4771249 37.4001419,40.3825834 40.1495613,40.3825834" id="Fill-4" fill="#000000"></path>
                        <path d="M59.1338323,49.8826685 C58.4785419,46.1174641 55.7295742,44.4973978 52.8925419,44.4973978 C49.3582194,44.4973978 46.9578968,46.5990442 46.3035097,49.8826685 L59.1338323,49.8826685 Z M53.3292516,58.9004033 C55.9481548,58.9004033 57.9117677,57.7188785 58.9586065,56.1867017 L62.842929,58.462768 C60.8355097,61.4401381 57.5622194,63.2350773 53.2858968,63.2350773 C46.084929,63.2350773 41.4152516,58.2883481 41.4152516,51.7215525 C41.4152516,45.2417403 46.084929,40.2080276 52.9368,40.2080276 C59.4391226,40.2080276 63.8902194,45.461011 63.8902194,51.7645912 C63.8902194,52.4219503 63.8026065,53.121895 63.7158968,53.7353094 L46.3468645,53.7353094 C47.0888645,57.1498619 49.8378323,58.9004033 53.3292516,58.9004033 Z" id="Fill-6" fill="#000000"></path>
                        <polygon id="Fill-8" fill="#000000" points="68.0359355 62.6658343 72.7494194 62.6658343 72.7494194 40.7763646 68.0359355 40.7763646"></polygon>
                        <path d="M98.0605161,49.2256718 L98.0605161,62.6659702 L93.3474839,62.6659702 L93.3474839,49.7067989 C93.3474839,46.3801359 91.4272258,44.6291414 88.4592258,44.6291414 C85.3607097,44.6291414 82.9170323,46.4680254 82.9170323,50.9336276 L82.9170323,62.6659702 L78.204,62.6659702 L78.204,40.7765006 L82.9170323,40.7765006 L82.9170323,43.5780917 C84.3572258,41.3015724 86.7141935,40.207937 89.6812903,40.207937 C94.5695484,40.207937 98.0605161,43.5346 98.0605161,49.2256718" id="Fill-10" fill="#000000"></path>
                        <path d="M119.619297,49.8826685 C118.964006,46.1174641 116.215039,44.4973978 113.378006,44.4973978 C109.843684,44.4973978 107.443361,46.5990442 106.788974,49.8826685 L119.619297,49.8826685 Z M113.814716,58.9004033 C116.432716,58.9004033 118.397232,57.7188785 119.444523,56.1867017 L123.328845,58.462768 C121.320974,61.4401381 118.048135,63.2350773 113.771361,63.2350773 C106.570394,63.2350773 101.900716,58.2883481 101.900716,51.7215525 C101.900716,45.2417403 106.570394,40.2080276 113.422265,40.2080276 C119.924587,40.2080276 124.375684,45.461011 124.375684,51.7645912 C124.375684,52.4219503 124.288523,53.121895 124.201361,53.7353094 L106.832329,53.7353094 C107.574329,57.1498619 110.323297,58.9004033 113.814716,58.9004033 Z" id="Fill-11" fill="#000000"></path>
                        <path d="M139.955335,40.3825834 L139.955335,45.5046387 C136.856368,45.285821 133.234432,46.7305613 133.234432,51.6333459 L133.234432,62.6661967 L128.5214,62.6661967 L128.5214,40.776274 L133.234432,40.776274 L133.234432,44.453589 C134.543658,41.4771249 137.205465,40.3825834 139.955335,40.3825834" id="Fill-12" fill="#000000"></path>
                        <path d="M45.9214903,77.5073812 L44.8692323,74.5014696 L43.8165226,77.5073812 L45.9214903,77.5073812 Z M46.2818774,78.5348729 L43.4561355,78.5348729 L42.9918774,79.8763204 L41.8063935,79.8763204 L44.2148452,73.217558 L45.5231677,73.217558 L47.9225871,79.8763204 L46.7465871,79.8763204 L46.2818774,78.5348729 Z" id="Fill-13" fill="#000000"></path>
                        <path d="M50.2943226,78.3639414 L51.2332258,77.8116873 C51.4703226,78.487168 51.982,78.9347702 52.8829677,78.9347702 C53.746,78.9347702 54.115871,78.5442508 54.115871,78.0594994 C54.115871,77.4691901 53.5942581,77.269853 52.6079355,76.965411 C51.5746452,76.6519083 50.5693548,76.2713558 50.5693548,75.0155326 C50.5693548,73.7882508 51.5836774,73.0937425 52.7027742,73.0937425 C53.7934194,73.0937425 54.5990968,73.6740851 55.0163871,74.5593227 L54.0969032,75.0916431 C53.8598065,74.5593227 53.4425161,74.1592895 52.7027742,74.1592895 C52.0678065,74.1592895 51.6595484,74.4832122 51.6595484,74.9869912 C51.6595484,75.500737 52.029871,75.7191017 52.9967742,76.0235436 C54.0969032,76.3755547 55.2060645,76.7180519 55.2060645,78.0400188 C55.2060645,79.2577867 54.2387097,79.9998641 52.8545161,79.9998641 C51.5457419,79.9998641 50.6452258,79.3533779 50.2943226,78.3639414" id="Fill-14" fill="#000000"></path>
                        <path d="M57.7679742,78.3639414 L58.7064258,77.8116873 C58.9439742,78.487168 59.4556516,78.9347702 60.3561677,78.9347702 C61.2196516,78.9347702 61.589071,78.5442508 61.589071,78.0594994 C61.589071,77.4691901 61.0679097,77.269853 60.0815871,76.965411 C59.0478452,76.6519083 58.0425548,76.2713558 58.0425548,75.0155326 C58.0425548,73.7882508 59.057329,73.0937425 60.1764258,73.0937425 C61.2666194,73.0937425 62.0727484,73.6740851 62.4900387,74.5593227 L61.5701032,75.0916431 C61.3334581,74.5593227 60.9161677,74.1592895 60.1764258,74.1592895 C59.5410065,74.1592895 59.1332,74.4832122 59.1332,74.9869912 C59.1332,75.500737 59.503071,75.7191017 60.4699742,76.0235436 C61.5701032,76.3755547 62.6797161,76.7180519 62.6797161,78.0400188 C62.6797161,79.2577867 61.7123613,79.9998641 60.3281677,79.9998641 C59.0193935,79.9998641 58.1184258,79.3533779 57.7679742,78.3639414" id="Fill-15" fill="#000000"></path>
                        <polygon id="Fill-16" fill="#000000" points="65.7530323 79.8763204 66.8432258 79.8763204 66.8432258 73.218011 65.7530323 73.218011"></polygon>
                        <path d="M69.9068323,78.3639414 L70.8457355,77.8116873 C71.0828323,78.487168 71.5945097,78.9347702 72.4954774,78.9347702 C73.3585097,78.9347702 73.7283806,78.5442508 73.7283806,78.0594994 C73.7283806,77.4691901 73.2067677,77.269853 72.2204452,76.965411 C71.1871548,76.6519083 70.1818645,76.2713558 70.1818645,75.0155326 C70.1818645,73.7882508 71.1961871,73.0937425 72.3152839,73.0937425 C73.405929,73.0937425 74.2116065,73.6740851 74.6288968,74.5593227 L73.7094129,75.0916431 C73.4723161,74.5593227 73.0550258,74.1592895 72.3152839,74.1592895 C71.6803161,74.1592895 71.2720581,74.4832122 71.2720581,74.9869912 C71.2720581,75.500737 71.6423806,75.7191017 72.6092839,76.0235436 C73.7094129,76.3755547 74.8185742,76.7180519 74.8185742,78.0400188 C74.8185742,79.2577867 73.8512194,79.9998641 72.4670258,79.9998641 C71.1582516,79.9998641 70.2577355,79.3533779 69.9068323,78.3639414" id="Fill-17" fill="#000000"></path>
                        <polygon id="Fill-18" fill="#000000" points="82.0170129 74.264032 80.1491419 74.264032 80.1491419 79.8762751 79.0584968 79.8762751 79.0584968 74.264032 77.1811419 74.264032 77.1811419 73.2175127 82.0170129 73.2175127"></polygon>
                        <polygon id="Fill-19" fill="#000000" points="89.0351226 78.8298011 89.0351226 79.8763204 85.0053806 79.8763204 85.0053806 73.217558 88.9881548 73.217558 88.9881548 74.2640773 86.0955742 74.2640773 86.0955742 75.9951381 88.7506065 75.9951381 88.7506065 77.0321436 86.0955742 77.0321436 86.0955742 78.8298011"></polygon>
                        <path d="M91.8241935,76.5468939 C91.8241935,74.6155901 93.2752258,73.0938331 95.2948387,73.0938331 C96.5083226,73.0938331 97.5894839,73.7122309 98.1490323,74.6826398 L97.2006452,75.2344409 C96.8497419,74.5775348 96.1289677,74.1589271 95.2948387,74.1589271 C93.8632258,74.1589271 92.9148387,75.177358 92.9148387,76.5468939 C92.9148387,77.9164298 93.8632258,78.9348608 95.2948387,78.9348608 C96.1289677,78.9348608 96.8592258,78.516253 97.2006452,77.859347 L98.1490323,78.4020873 C97.5989677,79.3715901 96.5182581,79.9999547 95.2948387,79.9999547 C93.2752258,79.9999547 91.8241935,78.4781978 91.8241935,76.5468939" id="Fill-20" fill="#000000"></path>
                        <mask id="mask-2" fill="white">
                            <use xlink:href="#path-1"></use>
                        </mask>
                        <use id="Clip-23" fill="#F29400" xlink:href="#path-1"></use>
                    </g>
                </g>
            </g>
        </g>
    </g>
</svg>